P1
# Símbolo de + (plus) 5x5
# Código esperado: XXBPBXPBBPBPPXPBPB
5 5
0 0 1 0 0
0 0 1 0 0
1 1 1 1 1
0 0 1 0 0
0 0 1 0 0